<svg xmlns="http://www.w3.org/2000/svg" viewBox="0 0 480 360" role="img" aria-label="可頌與千層課程(佔位示意圖)">
  <rect width="480" height="360" fill="#F1E4D6"/>
  <circle cx="240" cy="164" r="112" fill="#FBEFD9"/>
  <rect x="0" y="290" width="480" height="70" fill="#E8D3B6"/>
  <path d="M96 250c0-46 34-78 78-78 34 0 54 18 66 40 12-22 32-40 66-40 44 0 78 32 78 78Z" fill="#C8892E"/>
  <path d="M96 250c0-46 34-78 78-78 34 0 54 18 66 40 12-22 32-40 66-40 44 0 78 32 78 78Z" fill="none" stroke="#A06E22" stroke-width="5"/>
  <g stroke="#8A5A20" stroke-width="5" fill="none" stroke-linecap="round">
    <path d="M160 250c0-30 12-50 28-58"/>
    <path d="M200 250c0-26 10-44 22-52"/>
    <path d="M320 250c0-30-12-50-28-58"/>
    <path d="M280 250c0-26-10-44-22-52"/>
  </g>
  <ellipse cx="240" cy="252" rx="150" ry="10" fill="#D8BE9C"/>
  <g fill="#E0CDB6"><circle cx="90" cy="316" r="6"/><circle cx="398" cy="320" r="5"/><circle cx="122" cy="330" r="4"/></g>
</svg>
