<svg xmlns="http://www.w3.org/2000/svg" viewBox="0 0 480 360" role="img" aria-label="手工餅乾禮盒課程（佔位示意圖）">
<rect width="480" height="360" fill="#F1E4D6"/>
<circle cx="240" cy="164" r="116" fill="#FBF7F1" opacity=".7"/>
<rect x="0" y="292" width="480" height="68" fill="#E0CDB6" opacity=".55"/>
<circle cx="176" cy="210" r="54" fill="#C8892E" stroke="#4E301A" stroke-width="5"/><g fill="#4E301A"><circle cx="158" cy="202" r="6"/><circle cx="186" cy="194" r="6"/><circle cx="192" cy="222" r="6"/><circle cx="168" cy="228" r="6"/><circle cx="176" cy="210" r="6"/></g>
<circle cx="300" cy="202" r="48" fill="#C8892E" stroke="#4E301A" stroke-width="5"/><g fill="#4E301A"><circle cx="284" cy="194" r="6"/><circle cx="308" cy="187" r="6"/><circle cx="314" cy="212" r="6"/><circle cx="292" cy="218" r="6"/><circle cx="300" cy="202" r="6"/></g>
<circle cx="240" cy="268" r="44" fill="#C8892E" stroke="#4E301A" stroke-width="5"/><g fill="#4E301A"><circle cx="225" cy="261" r="6"/><circle cx="248" cy="254" r="6"/><circle cx="253" cy="277" r="6"/><circle cx="233" cy="282" r="6"/><circle cx="240" cy="268" r="6"/></g>
<ellipse cx="240" cy="292" rx="128" ry="10" fill="#4E301A" opacity=".35"/>
</svg>
